<svg aria-hidden="true" style="position: absolute; width: 0; height: 0; overflow: hidden;" version="1.1" xmlns="http://www.w3.org/2000/svg" xmlns:xlink="http://www.w3.org/1999/xlink">
<defs>
<symbol id="icon-antiEye" viewBox="0 0 32 32">
<path fill="#f3f3f3" style="fill: var(--color1, #f3f3f3)" d="M21.467 17.733l-1.933-1.933c0.2-1.044-0.1-2.022-0.9-2.933s-1.833-1.267-3.1-1.067l-1.933-1.933c0.378-0.178 0.761-0.311 1.149-0.4s0.806-0.133 1.251-0.133c1.667 0 3.084 0.583 4.251 1.749s1.749 2.584 1.749 4.251c0 0.444-0.044 0.861-0.133 1.251s-0.222 0.772-0.4 1.149zM25.733 21.933l-1.933-1.867c0.844-0.644 1.595-1.35 2.251-2.117s1.216-1.638 1.683-2.616c-1.111-2.244-2.706-4.028-4.784-5.351s-4.394-1.983-6.949-1.983c-0.644 0-1.278 0.044-1.9 0.133s-1.233 0.222-1.833 0.4l-2.067-2.067c0.911-0.378 1.844-0.661 2.8-0.851s1.956-0.283 3-0.283c3.356 0 6.344 0.928 8.967 2.783s4.522 4.262 5.7 7.217c-0.511 1.311-1.183 2.528-2.016 3.651s-1.806 2.105-2.917 2.949zM26.4 30.133l-5.6-5.533c-0.778 0.244-1.561 0.428-2.349 0.551s-1.606 0.183-2.451 0.183c-3.356 0-6.344-0.928-8.967-2.783s-4.522-4.262-5.7-7.217c0.467-1.178 1.056-2.272 1.767-3.284s1.522-1.916 2.433-2.716l-3.667-3.733 1.867-1.867 24.533 24.533-1.867 1.867zM7.4 11.2c-0.644 0.578-1.233 1.211-1.767 1.9s-0.989 1.433-1.367 2.233c1.111 2.244 2.705 4.028 4.783 5.349s4.395 1.984 6.951 1.984c0.444 0 0.878-0.028 1.3-0.083s0.856-0.117 1.3-0.184l-1.2-1.267c-0.244 0.067-0.478 0.116-0.7 0.149s-0.456 0.051-0.7 0.051c-1.667 0-3.084-0.583-4.251-1.749s-1.749-2.584-1.749-4.251c0-0.244 0.016-0.478 0.049-0.7s0.084-0.456 0.151-0.7l-2.8-2.733z"></path>
</symbol>
<symbol id="icon-calendar" viewBox="0 0 32 32">
<path fill="none" stroke="#f3f3f3" style="stroke: var(--color1, #f3f3f3)" stroke-linejoin="round" stroke-linecap="round" stroke-miterlimit="4" stroke-width="2.4" d="M25.333 5.334h-18.667c-1.473 0-2.667 1.194-2.667 2.667v18.667c0 1.473 1.194 2.667 2.667 2.667h18.667c1.473 0 2.667-1.194 2.667-2.667v-18.667c0-1.473-1.194-2.667-2.667-2.667z"></path>
<path fill="none" stroke="#f3f3f3" style="stroke: var(--color1, #f3f3f3)" stroke-linejoin="round" stroke-linecap="round" stroke-miterlimit="4" stroke-width="2.4" d="M21.334 2.666v5.333"></path>
<path fill="none" stroke="#f3f3f3" style="stroke: var(--color1, #f3f3f3)" stroke-linejoin="round" stroke-linecap="round" stroke-miterlimit="4" stroke-width="2.4" d="M10.666 2.666v5.333"></path>
<path fill="none" stroke="#f3f3f3" style="stroke: var(--color1, #f3f3f3)" stroke-linejoin="round" stroke-linecap="round" stroke-miterlimit="4" stroke-width="2.4" d="M4 13.334h24"></path>
</symbol>
<symbol id="icon-camera" viewBox="0 0 32 32">
<path fill="none" stroke="#fff" style="stroke: var(--color2, #fff)" stroke-linejoin="round" stroke-linecap="round" stroke-miterlimit="4" stroke-width="0.64" d="M28.19 11.428v-4.581c0-0.807-0.32-1.58-0.889-2.152s-1.342-0.893-2.149-0.896l-4.581-0.014M28.19 20.571v4.571c0 0.808-0.321 1.583-0.893 2.155s-1.347 0.893-2.155 0.893h-4.571M11.428 3.787l-4.581 0.015c-0.807 0.002-1.58 0.325-2.149 0.896s-0.889 1.345-0.889 2.152v4.579M11.428 28.19h-4.571c-0.808 0-1.583-0.321-2.155-0.893s-0.893-1.347-0.893-2.155v-4.571"></path>
<path fill="#fff" style="fill: var(--color2, #fff)" d="M16 18.75c0.625 0 1.156-0.219 1.594-0.656s0.656-0.969 0.656-1.594c0-0.625-0.219-1.156-0.656-1.594s-0.969-0.656-1.594-0.656-1.156 0.219-1.594 0.656c-0.437 0.438-0.656 0.969-0.656 1.594s0.219 1.156 0.656 1.594c0.438 0.437 0.969 0.656 1.594 0.656zM12 20.5c-0.275 0-0.51-0.098-0.706-0.293s-0.294-0.432-0.294-0.706v-6c0-0.275 0.098-0.51 0.294-0.706s0.431-0.294 0.706-0.294h1.575l0.925-1h3l0.925 1h1.575c0.275 0 0.511 0.098 0.706 0.294s0.294 0.431 0.294 0.706v6c0 0.275-0.098 0.51-0.294 0.706s-0.431 0.293-0.706 0.293h-8z"></path>
</symbol>
<symbol id="icon-close" viewBox="0 0 32 32">
<path fill="#f3f3f3" style="fill: var(--color1, #f3f3f3)" d="M25.333 8.547l-1.88-1.88-7.453 7.453-7.453-7.453-1.88 1.88 7.453 7.453-7.453 7.453 1.88 1.88 7.453-7.453 7.453 7.453 1.88-1.88-7.453-7.453 7.453-7.453z"></path>
</symbol>
<symbol id="icon-logo" viewBox="0 0 32 32">
<path fill="#3a6af5" style="fill: var(--color3, #3a6af5)" d="M4.571 0c-2.521 0-4.571 2.051-4.571 4.571s2.051 4.571 4.571 4.571c2.521 0 4.571-2.051 4.571-4.571s-2.051-4.571-4.571-4.571z"></path>
<path fill="#f3f3f3" style="fill: var(--color1, #f3f3f3)" d="M27.428 0c-2.521 0-4.571 2.051-4.571 4.571s2.051 4.571 4.571 4.571c2.521 0 4.571-2.051 4.571-4.571s-2.051-4.571-4.571-4.571z"></path>
<path fill="#3a6af5" style="fill: var(--color3, #3a6af5)" d="M16 0c-2.521 0-4.571 2.051-4.571 4.571s2.051 4.571 4.571 4.571c2.521 0 4.571-2.051 4.571-4.571s-2.051-4.571-4.571-4.571z"></path>
<path fill="#3a6af5" style="fill: var(--color3, #3a6af5)" d="M27.428 22.857c-2.521 0-4.571 2.051-4.571 4.571s2.051 4.571 4.571 4.571c2.521 0 4.571-2.051 4.571-4.571s-2.051-4.571-4.571-4.571z"></path>
<path fill="#f3f3f3" style="fill: var(--color1, #f3f3f3)" d="M27.428 11.428c-2.521 0-4.571 2.051-4.571 4.571s2.051 4.571 4.571 4.571c2.521 0 4.571-2.051 4.571-4.571s-2.051-4.571-4.571-4.571z"></path>
<path fill="#3a6af5" style="fill: var(--color3, #3a6af5)" d="M16 11.428c-2.521 0-4.571 2.051-4.571 4.571s2.051 4.571 4.571 4.571c2.521 0 4.571-2.051 4.571-4.571s-2.051-4.571-4.571-4.571z"></path>
</symbol>
<symbol id="icon-log-out" viewBox="0 0 32 32">
<path stroke-linejoin="round" stroke-linecap="round" stroke-miterlimit="4" stroke-width="3.4286" d="M12 28h-5.333c-0.707 0-1.386-0.281-1.886-0.781s-0.781-1.178-0.781-1.886v-18.667c0-0.707 0.281-1.386 0.781-1.886s1.178-0.781 1.886-0.781h5.333"></path>
<path stroke-linejoin="round" stroke-linecap="round" stroke-miterlimit="4" stroke-width="3.4286" d="M21.333 22.667l6.667-6.667-6.667-6.667"></path>
<path stroke-linejoin="round" stroke-linecap="round" stroke-miterlimit="4" stroke-width="3.4286" d="M28 16h-16"></path>
</symbol>
<symbol id="icon-open" viewBox="0 0 32 32">
<path fill="#f3f3f3" style="fill: var(--color1, #f3f3f3)" d="M9.867 10.667l-1.867 1.867 8 8 8-8-1.867-1.867-6.133 6.133-6.133-6.133z"></path>
</symbol>
<symbol id="icon-pen" viewBox="0 0 32 32">
<path fill="#3a6af5" style="fill: var(--color3, #3a6af5)" d="M6.769 21.385v3.846h3.846l11.344-11.344-3.846-3.846-11.344 11.344zM24.933 10.913c0.4-0.4 0.4-1.046 0-1.446l-2.4-2.4c-0.4-0.4-1.046-0.4-1.446 0l-1.877 1.877 3.846 3.846 1.877-1.877z"></path>
</symbol>
<symbol id="icon-rectangle" viewBox="0 0 32 32">
<path fill="#3a6af5" style="fill: var(--color3, #3a6af5)" d="M6.4 0h19.2c3.535 0 6.4 2.865 6.4 6.4v19.2c0 3.535-2.865 6.4-6.4 6.4h-19.2c-3.535 0-6.4-2.865-6.4-6.4v-19.2c0-3.535 2.865-6.4 6.4-6.4z"></path>
<path fill="#fff" style="fill: var(--color2, #fff)" d="M18.899 13.971v6.187h-0.666v-5.25h-1.901v5.25h-0.666v-4.312h-1.901v4.312h-0.666v-3.375h-1.901v3.937h9.6v-6.75h-1.901zM12.538 20.158h-0.776v-2.812h0.776v2.812zM15.105 20.158h-0.776v-3.75h0.776v3.75zM17.671 20.158h-0.776v-4.687h0.776v4.687zM20.238 20.158h-0.776v-5.625h0.776v5.625z"></path>
<path fill="#fff" style="fill: var(--color2, #fff)" d="M19.486 11.279l-0.296 0.478 0.602 0.373-8.576 3.109 0.192 0.529 8.56-3.104-0.258 0.658 0.524 0.206 0.564-1.437-1.312-0.812z"></path>
</symbol>
<symbol id="icon-trash" viewBox="0 0 32 32">
<path fill="none" stroke="#fff" style="stroke: var(--color2, #fff)" stroke-linejoin="round" stroke-linecap="round" stroke-miterlimit="4" stroke-width="2.6182" d="M4 8h24"></path>
<path fill="none" stroke="#fff" style="stroke: var(--color2, #fff)" stroke-linejoin="round" stroke-linecap="round" stroke-miterlimit="4" stroke-width="2.6182" d="M25.334 8v18.667c0 0.707-0.281 1.385-0.781 1.886s-1.178 0.781-1.886 0.781h-13.333c-0.707 0-1.386-0.281-1.886-0.781s-0.781-1.178-0.781-1.886v-18.667M10.667 8v-2.667c0-0.707 0.281-1.386 0.781-1.886s1.178-0.781 1.886-0.781h5.333c0.707 0 1.385 0.281 1.886 0.781s0.781 1.178 0.781 1.886v2.667"></path>
<path fill="none" stroke="#fff" style="stroke: var(--color2, #fff)" stroke-linejoin="round" stroke-linecap="round" stroke-miterlimit="4" stroke-width="2.6182" d="M13.333 14.667v8"></path>
<path fill="none" stroke="#fff" style="stroke: var(--color2, #fff)" stroke-linejoin="round" stroke-linecap="round" stroke-miterlimit="4" stroke-width="2.6182" d="M18.667 14.667v8"></path>
</symbol>
<symbol id="icon-dollar-symbol" viewBox="0 0 25 32">
<path fill="#f3f3f3" style="fill: var(--color1, #f3f3f3)" d="M21.379 17.788h-8.974c0.903-0.695 1.839-1.336 2.645-1.953 0.2-0.153 0.394-0.31 0.586-0.468h5.743c0.816 0 1.477-0.661 1.477-1.477s-0.661-1.477-1.477-1.477h-3.013c0.411-0.629 0.761-1.304 1.019-2.049 0.664-1.92 0.333-4.131-0.778-5.812-2.801-4.238-8.556-3.925-12.564-1.82-1.686 0.886-0.194 3.435 1.491 2.55 1.989-1.045 4.198-1.517 6.373-0.802 1.488 0.489 2.724 1.84 2.853 3.428 0.145 1.8-0.945 3.31-2.203 4.504h-11.32c-0.816 0-1.477 0.661-1.477 1.477s0.661 1.477 1.477 1.477h7.526c-0.687 0.508-1.362 1.030-1.994 1.61-0.277 0.255-0.536 0.526-0.78 0.811h-4.751c-0.816 0-1.477 0.661-1.477 1.477s0.661 1.477 1.477 1.477h3.029c-0.96 2.665-0.657 5.691 1.502 7.919 2.987 3.082 8.111 2.326 11.579 0.637 1.712-0.834 0.214-3.381-1.491-2.55-2.685 1.309-7.605 2.010-8.88-1.584-0.613-1.728-0.291-3.17 0.501-4.421h11.901c0.816 0 1.477-0.661 1.477-1.477s-0.661-1.478-1.477-1.478z"></path>
</symbol>
<symbol id="icon-percent" viewBox="0 0 32 32">
<path fill="#f3f3f3" style="fill: var(--color1, #f3f3f3)" d="M13.862 7.93c0 1.075-0.166 2.042-0.499 2.899-0.333 0.845-0.781 1.562-1.344 2.15-0.55 0.576-1.197 1.018-1.939 1.325-0.73 0.307-1.504 0.461-2.323 0.461-0.858 0-1.658-0.154-2.4-0.461s-1.389-0.749-1.939-1.325c-0.538-0.589-0.96-1.306-1.267-2.15-0.307-0.858-0.461-1.824-0.461-2.899 0-1.101 0.154-2.080 0.461-2.938s0.73-1.581 1.267-2.17c0.55-0.589 1.197-1.037 1.939-1.344s1.542-0.461 2.4-0.461c0.87 0 1.677 0.154 2.419 0.461s1.389 0.755 1.939 1.344c0.55 0.589 0.979 1.312 1.286 2.17s0.461 1.837 0.461 2.938zM11.213 7.93c0-0.845-0.090-1.562-0.269-2.15s-0.429-1.069-0.749-1.44c-0.307-0.384-0.672-0.659-1.094-0.826s-0.87-0.25-1.344-0.25c-0.474 0-0.915 0.083-1.325 0.25s-0.768 0.442-1.075 0.826c-0.307 0.371-0.55 0.851-0.73 1.44s-0.269 1.306-0.269 2.15c0 0.832 0.090 1.542 0.269 2.131 0.179 0.576 0.422 1.050 0.73 1.421 0.307 0.358 0.666 0.621 1.075 0.787 0.41 0.154 0.851 0.23 1.325 0.23s0.922-0.077 1.344-0.23c0.422-0.166 0.787-0.429 1.094-0.787 0.32-0.371 0.57-0.845 0.749-1.421 0.179-0.589 0.269-1.299 0.269-2.131zM23.597 1.862c0.128-0.154 0.275-0.288 0.442-0.403 0.179-0.115 0.416-0.173 0.71-0.173h2.477l-20.122 26.957c-0.115 0.166-0.262 0.301-0.442 0.403s-0.397 0.154-0.653 0.154h-2.515l20.102-26.938zM29.088 22.31c0 1.075-0.166 2.035-0.499 2.88s-0.781 1.562-1.344 2.15c-0.55 0.576-1.197 1.018-1.939 1.325-0.73 0.307-1.504 0.461-2.323 0.461-0.87 0-1.677-0.154-2.419-0.461-0.73-0.307-1.37-0.749-1.92-1.325-0.538-0.589-0.96-1.306-1.267-2.15s-0.461-1.805-0.461-2.88c0-1.101 0.154-2.080 0.461-2.938 0.307-0.87 0.73-1.6 1.267-2.189 0.55-0.589 1.19-1.037 1.92-1.344 0.742-0.307 1.549-0.461 2.419-0.461 0.858 0 1.658 0.154 2.4 0.461 0.755 0.307 1.402 0.755 1.939 1.344 0.55 0.589 0.979 1.318 1.286 2.189 0.32 0.858 0.48 1.837 0.48 2.938zM26.438 22.31c0-0.845-0.090-1.562-0.269-2.15-0.179-0.602-0.429-1.088-0.749-1.459-0.307-0.371-0.672-0.64-1.094-0.806s-0.87-0.25-1.344-0.25c-0.474 0-0.922 0.083-1.344 0.25-0.41 0.166-0.768 0.435-1.075 0.806s-0.55 0.858-0.73 1.459c-0.166 0.589-0.25 1.306-0.25 2.15 0 0.832 0.083 1.536 0.25 2.112 0.179 0.576 0.422 1.050 0.73 1.421 0.307 0.358 0.666 0.621 1.075 0.787 0.422 0.154 0.87 0.23 1.344 0.23s0.922-0.077 1.344-0.23c0.422-0.166 0.787-0.429 1.094-0.787 0.32-0.371 0.57-0.845 0.749-1.421s0.269-1.28 0.269-2.112z"></path>
</symbol>
<symbol id="icon-burger-menu" viewBox="0 0 32 32">
<path fill="none" stroke="#f3f3f3" style="stroke: var(--color1, #f3f3f3)" stroke-linejoin="miter" stroke-linecap="round" stroke-miterlimit="4" stroke-width="2" d="M4 9.333h24"></path>
<path fill="none" stroke="#f3f3f3" style="stroke: var(--color1, #f3f3f3)" stroke-linejoin="miter" stroke-linecap="round" stroke-miterlimit="4" stroke-width="2" d="M4 16h24"></path>
<path fill="none" stroke="#f3f3f3" style="stroke: var(--color1, #f3f3f3)" stroke-linejoin="miter" stroke-linecap="round" stroke-miterlimit="4" stroke-width="2" d="M4 22.667h24"></path>
</symbol>
<symbol id="icon-burger-close" viewBox="0 0 32 32">
<path fill="#f3f3f3" style="fill: var(--color1, #f3f3f3)" d="M25.333 8.547l-1.88-1.88-7.453 7.453-7.453-7.453-1.88 1.88 7.453 7.453-7.453 7.453 1.88 1.88 7.453-7.453 7.453 7.453 1.88-1.88-7.453-7.453 7.453-7.453z"></path>
</symbol>
<symbol id="icon-settings" viewBox="0 0 32 32">
<path fill="#3a6af5" style="fill: var(--color1, #3a6af5)" d="M19.255 18.565l2.1-3.63c0.135-0.225 0.075-0.51-0.12-0.675l-2.22-1.74c0.045-0.33 0.075-0.675 0.075-1.020s-0.030-0.69-0.075-1.035l2.22-1.74c0.195-0.165 0.255-0.45 0.12-0.675l-2.1-3.63c-0.135-0.225-0.405-0.315-0.645-0.225l-2.61 1.050c-0.54-0.42-1.125-0.765-1.77-1.035l-0.39-2.775c-0.045-0.24-0.27-0.435-0.525-0.435h-4.2c-0.255 0-0.48 0.195-0.525 0.45l-0.39 2.775c-0.63 0.27-1.23 0.615-1.77 1.035l-2.61-1.050c-0.24-0.090-0.51 0-0.645 0.225l-2.1 3.63c-0.135 0.225-0.075 0.51 0.12 0.675l2.22 1.74c-0.045 0.33-0.075 0.675-0.075 1.020s0.030 0.69 0.075 1.035l-2.22 1.74c-0.195 0.165-0.255 0.45-0.12 0.675l2.1 3.63c0.135 0.225 0.405 0.315 0.645 0.225l2.61-1.050c0.54 0.42 1.125 0.765 1.77 1.035l0.39 2.775c0.045 0.24 0.27 0.435 0.525 0.435h4.2c0.255 0 0.48-0.195 0.525-0.45l0.39-2.775c0.63-0.27 1.23-0.615 1.77-1.035l2.61 1.050c0.24 0.090 0.51 0 0.645-0.225zM11.215 14.5c-1.65 0-3-1.35-3-3s1.35-3 3-3c1.65 0 3 1.35 3 3s-1.35 3-3 3z"></path>
<path fill="#3a6af5" style="fill: var(--color1, #3a6af5)" d="M30.88 26.005l-1.44-1.11c0.030-0.21 0.060-0.435 0.060-0.66s-0.015-0.45-0.060-0.66l1.425-1.11c0.12-0.105 0.165-0.285 0.075-0.435l-1.35-2.325c-0.075-0.15-0.255-0.195-0.42-0.15l-1.665 0.675c-0.345-0.27-0.72-0.495-1.14-0.66l-0.255-1.77c-0.015-0.18-0.165-0.3-0.315-0.3h-2.685c-0.165 0-0.315 0.12-0.33 0.285l-0.255 1.77c-0.405 0.18-0.795 0.39-1.14 0.66l-1.665-0.675c-0.15-0.060-0.33 0-0.42 0.15l-1.35 2.325c-0.075 0.15-0.060 0.33 0.075 0.435l1.425 1.11c-0.030 0.21-0.045 0.435-0.045 0.66s0.015 0.45 0.045 0.66l-1.425 1.11c-0.12 0.105-0.165 0.285-0.075 0.435l1.35 2.325c0.075 0.15 0.255 0.195 0.42 0.15l1.665-0.675c0.345 0.27 0.72 0.495 1.14 0.66l0.255 1.77c0.030 0.165 0.165 0.285 0.33 0.285h2.685c0.165 0 0.315-0.12 0.33-0.285l0.255-1.77c0.405-0.18 0.795-0.39 1.125-0.66l1.68 0.675c0.15 0.060 0.33 0 0.42-0.15l1.35-2.325c0.090-0.135 0.045-0.315-0.075-0.42zM24.445 26.245c-1.11 0-2.025-0.9-2.025-2.025s0.9-2.025 2.025-2.025c1.125 0 2.025 0.9 2.025 2.025s-0.915 2.025-2.025 2.025z"></path>
</symbol>
<symbol id="icon-house" viewBox="0 0 32 32">
<path fill="#3a6af5" style="fill: var(--color1, #3a6af5)" d="M25.333 12.4v-7.067h-4v3.467l-5.333-4.8-13.333 12h4v10.667h6.667v-8h5.333v8h6.667v-10.667h4l-4-3.6zM13.333 13.333c0-1.467 1.2-2.667 2.667-2.667s2.667 1.2 2.667 2.667h-5.333z"></path>
</symbol>
<symbol id="icon-car" viewBox="0 0 32 32">
<path fill="#3a6af5" style="fill: var(--color1, #3a6af5)" d="M16 5.333h-9.333c-2.213 0-4 1.787-4 4v10.667c0 2.213 1.787 4 4 4l-1.333 1.333v1.333h1.333l2.667-2.707 2.667 0.040v-6.667h-6.667v-9.36l12 0.027v2.667h2.667v-1.333c0-2.213-1.787-4-4-4zM6.667 18.667c0.733 0 1.333 0.6 1.333 1.333s-0.6 1.333-1.333 1.333c-0.733 0-1.333-0.6-1.333-1.333s0.6-1.333 1.333-1.333zM27.427 12.88c-0.187-0.533-0.693-0.88-1.293-0.88h-9.587c-0.613 0-1.107 0.347-1.307 0.88l-1.907 5.48 0.013 7.347c0 0.507 0.413 0.96 0.92 0.96h0.827c0.507 0 0.907-0.507 0.907-1.013v-1.653h10.667v1.653c0 0.507 0.413 1.013 0.92 1.013h0.813c0.507 0 0.92-0.453 0.92-0.96l0.013-1.827v-5.52l-1.907-5.48zM16.547 13.333h9.587l1.373 4h-12.333l1.373-4zM16 21.333c-0.733 0-1.333-0.6-1.333-1.333s0.6-1.333 1.333-1.333c0.733 0 1.333 0.6 1.333 1.333s-0.6 1.333-1.333 1.333zM26.667 21.333c-0.733 0-1.333-0.6-1.333-1.333s0.6-1.333 1.333-1.333c0.733 0 1.333 0.6 1.333 1.333s-0.6 1.333-1.333 1.333z"></path>
</symbol>
<symbol id="icon-medical" viewBox="0 0 32 32">
<path fill="#3a6af5" style="fill: var(--color1, #3a6af5)" d="M26.667 8h-5.333v-2.667c0-1.467-1.2-2.667-2.667-2.667h-5.333c-1.467 0-2.667 1.2-2.667 2.667v2.667h-5.333c-1.467 0-2.667 1.2-2.667 2.667v16c0 1.467 1.2 2.667 2.667 2.667h21.333c1.467 0 2.667-1.2 2.667-2.667v-16c0-1.467-1.2-2.667-2.667-2.667zM13.333 5.333h5.333v2.667h-5.333v-2.667zM21.333 20h-4v4h-2.667v-4h-4v-2.667h4v-4h2.667v4h4v2.667z"></path>
</symbol>
<symbol id="icon-spa" viewBox="0 0 32 32">
<path fill="#242424" style="fill: var(--color2, #242424)" d="M11.4 16c-1.427-0.947-3-1.693-4.707-2.147 1.707 0.453 3.28 1.2 4.707 2.147zM25.307 13.853c-1.72 0.453-3.32 1.213-4.76 2.187 1.44-0.973 3.040-1.733 4.76-2.187z"></path>
<path fill="#3a6af5" style="fill: var(--color1, #3a6af5)" d="M20.653 12.84c-0.24-3.72-1.747-7.347-4.573-10.173-2.853 2.853-4.427 6.48-4.733 10.173 1.707 0.907 3.28 2.080 4.653 3.507 1.373-1.413 2.947-2.587 4.653-3.507zM11.987 16.373c-0.187-0.133-0.4-0.253-0.6-0.387 0.2 0.147 0.413 0.253 0.6 0.387zM20.547 16.040c-0.173 0.12-0.36 0.213-0.533 0.347 0.173-0.133 0.36-0.227 0.533-0.347zM16 20.6c-2.867-4.373-7.76-7.267-13.333-7.267 0 7.093 4.48 13.093 10.707 15.32 0.84 0.307 1.72 0.533 2.627 0.68 0.907-0.16 1.773-0.387 2.627-0.68 6.227-2.227 10.707-8.227 10.707-15.32-5.573 0-10.467 2.893-13.333 7.267z"></path>
</symbol>
<symbol id="icon-restaurant" viewBox="0 0 32 32">
<path fill="#3a6af5" style="fill: var(--color1, #3a6af5)" d="M14.667 12h-2.667v-9.333h-2.667v9.333h-2.667v-9.333h-2.667v9.333c0 2.827 2.213 5.12 5 5.293v12.040h3.333v-12.040c2.787-0.173 5-2.467 5-5.293v-9.333h-2.667v9.333zM21.333 8v10.667h3.333v10.667h3.333v-26.667c-3.68 0-6.667 2.987-6.667 5.333z"></path>
</symbol>
<symbol id="icon-checkroom" viewBox="0 0 32 32">
<path fill="#3a6af5" style="fill: var(--color1, #3a6af5)" d="M28.8 24.267l-11.467-8.6v-1.213c2.2-0.653 3.733-2.893 3.24-5.4-0.347-1.747-1.733-3.2-3.48-3.6-3.040-0.693-5.76 1.613-5.76 4.547h2.667c0-1.107 0.893-2 2-2s2 0.893 2 2c0 1.12-0.92 2.027-2.040 2-0.72-0.013-1.293 0.6-1.293 1.32v2.347l-11.467 8.6c-1.027 0.773-0.48 2.4 0.8 2.4h24c1.28 0 1.827-1.627 0.8-2.4zM8 24l8-6 8 6h-16z"></path>
</symbol>
<symbol id="icon-fish" viewBox="0 0 32 32">
<path fill="#3a6af5" style="fill: var(--color1, #3a6af5)" d="M28.067 23.413l-23.96 1.253-0.107-2 23.973-1.253 0.093 2zM28 25.973h-24v2h24v-2zM29.333 6.667v9.333c0 1.467-1.2 2.667-2.667 2.667h-21.333c-1.467 0-2.667-1.2-2.667-2.667v-9.333c0-1.467 1.2-2.667 2.667-2.667h21.333c1.467 0 2.667 1.2 2.667 2.667zM26.667 8c-2.24 0-4.053 1.307-4.28 2.973-0.853-0.973-3.64-3.64-8.72-3.64-6.227 0-9 4-9 4s2.773 4 9 4c5.080 0 7.867-2.667 8.72-3.64 0.227 1.667 2.040 2.973 4.28 2.973v-6.667z"></path>
</symbol>
<symbol id="icon-eye" viewBox="0 0 32 32">
<path d="M31.965 15.776c-0.010-0.042-0.004-0.087-0.020-0.128-0.006-0.017-0.021-0.026-0.027-0.042-0.010-0.024-0.008-0.051-0.021-0.074-2.9-5.551-9.213-9.528-15.873-9.528-6.661 0-12.973 3.971-15.875 9.521-0.013 0.023-0.011 0.050-0.021 0.074-0.007 0.016-0.021 0.025-0.027 0.042-0.016 0.041-0.010 0.086-0.020 0.128-0.018 0.075-0.035 0.147-0.035 0.224s0.018 0.148 0.035 0.224c0.010 0.042 0.004 0.087 0.020 0.128 0.006 0.017 0.021 0.026 0.027 0.042 0.010 0.024 0.008 0.051 0.021 0.074 2.901 5.551 9.214 9.528 15.875 9.528 6.66 0 12.973-3.971 15.873-9.521 0.014-0.023 0.012-0.050 0.021-0.074 0.006-0.016 0.021-0.025 0.027-0.042 0.016-0.041 0.010-0.086 0.020-0.128 0.017-0.076 0.035-0.148 0.035-0.224s-0.018-0.149-0.035-0.224zM16.023 23.988c-5.615 0-11.112-3.191-13.851-7.995 2.754-4.81 8.243-7.99 13.851-7.99 5.613 0 11.111 3.192 13.85 7.995-2.754 4.811-8.242 7.99-13.85 7.99zM16.023 11.999c0.276 0 0.498 0.223 0.498 0.5 0 0.275-0.223 0.499-0.498 0.499v0.001c-1.654 0-2.999 1.345-2.999 2.997 0 0.276-0.224 0.5-0.499 0.5s-0.5-0.224-0.5-0.5c0-2.205 1.787-3.992 3.992-3.996 0.002 0 0.004-0.001 0.006-0.001zM16 9c-3.867 0-7 3.134-7 7s3.134 7 7 7c3.865 0 7-3.135 7-7 0-3.867-3.135-7-7-7zM16 22c-3.309 0-6-2.691-6-6s2.691-6 6-6c3.309 0 6 2.691 6 6s-2.691 6-6 6z"></path>
</symbol>
</defs>
</svg>
